<?xml version="1.0" encoding="UTF-8"?>
<svg id="Layer_1" xmlns="http://www.w3.org/2000/svg" version="1.1" xmlns:xlink="http://www.w3.org/1999/xlink" viewBox="0 0 985.65 532.17">
  <!-- Generator: Adobe Illustrator 30.0.0, SVG Export Plug-In . SVG Version: 2.1.1 Build 123)  -->
  <defs>
    <style>
      .st0 {
        fill: #f49122;
      }

      .st1 {
        fill: #fff;
      }

      .st1, .st2 {
        fill-rule: evenodd;
      }

      .st3 {
        fill: none;
      }

      .st4 {
        fill: url(#linear-gradient);
      }

      .st5 {
        clip-path: url(#clippath);
      }

      .st2 {
        fill: #00364e;
      }
    </style>
    <clipPath id="clippath">
      <path class="st3" d="M128.63,68.06l-7.99-7.76,11.02-1.63,4.91-10.01,4.96,9.98,11.03,1.58-7.96,7.8,1.91,10.98-9.88-5.16-9.85,5.21,1.85-10.99ZM136.51,26.62c-3.42.01-6.48,1.92-7.98,4.99l-6.68,13.63-15.01,2.22c-3.38.5-6.13,2.83-7.18,6.08-1.05,3.25-.18,6.75,2.27,9.14l10.89,10.56-2.53,14.95c-.57,3.38.8,6.71,3.57,8.72,1.57,1.13,3.39,1.7,5.24,1.7,1.42,0,2.84-.35,4.15-1.04l13.41-7.09,13.44,7.02c3.03,1.59,6.62,1.32,9.39-.7,2.76-2.02,4.11-5.36,3.53-8.73l-2.6-14.94,10.84-10.62c2.44-2.39,3.29-5.9,2.23-9.14-1.06-3.25-3.82-5.57-7.21-6.05l-15.02-2.14-6.75-13.59h0c-1.52-3.06-4.59-4.96-8.01-4.95h0Z"/>
    </clipPath>
    <linearGradient id="linear-gradient" x1="123.02" y1="397.99" x2="125.99" y2="397.99" gradientTransform="translate(-2994.49 10071.76) scale(25.15 -25.15)" gradientUnits="userSpaceOnUse">
      <stop offset="0" stop-color="#f5ab40"/>
      <stop offset=".22" stop-color="#f5ab40"/>
      <stop offset=".58" stop-color="#f49122"/>
      <stop offset=".92" stop-color="#ef642a"/>
      <stop offset=".99" stop-color="#ef5a2c"/>
      <stop offset="1" stop-color="#ef5a2c"/>
    </linearGradient>
  </defs>
  <path class="st2" d="M190.09,132.14c-.03-10.85-8.87-19.65-19.72-19.62-8.01.02-14.9,4.86-17.95,11.75l-28.59.07c-.57-10.36-9.17-18.6-19.67-18.58-10.85.03-19.65,8.87-19.62,19.72.02,7.47,4.22,13.97,10.38,17.29l25.18,62.1c2.48,6.13,7.65,10.93,14.08,12.45,10.1,2.39,19.96-3.05,23.56-12.23l21.78-55.47c6.29-3.3,10.59-9.89,10.58-17.47"/>
  <g>
    <path class="st0" d="M61.43,326.22c0-1.73.47-3.08,1.41-4.07.94-.99,2.07-1.52,3.39-1.61l117.97-.28c1.89,0,3.31.52,4.26,1.59.95,1.06,1.42,2.49,1.43,4.3l.07,30.48c0,1.4-.49,2.73-1.47,4-.98,1.27-2.42,1.91-4.31,1.92l-74.95.18.09,38.21,55.35-.13c1.56,0,2.88.43,3.95,1.29,1.07.86,1.61,2.24,1.61,4.13l.07,29.46c0,1.4-.47,2.73-1.41,4.01-.94,1.28-2.23,1.92-3.88,1.92l-55.59.13.14,56.46c0,3.53-1.88,5.3-5.66,5.31l-37.6.09c-2.96-.4-4.44-2.13-4.45-5.17l-.42-172.21Z"/>
    <path class="st0" d="M361.02,500.79c-1.06.91-2.2,1.49-3.38,1.73-1.19.25-2.32.38-3.39.38l-18.61.04c-1.48,0-2.76-.26-3.82-.79-1.07-.53-1.98-1.25-2.72-2.15-.74-.9-1.36-1.92-1.86-3.07-.5-1.15-.91-2.34-1.24-3.56l-2.62-12.04c-1.23,2.54-3.28,5.23-6.14,8.06-2.87,2.83-6.42,5.44-10.64,7.83-4.23,2.39-9.09,4.37-14.59,5.94-5.51,1.57-11.5,2.36-17.99,2.38-9.37.02-17.67-1.77-24.91-5.37-7.24-3.6-13.36-8.51-18.34-14.75-4.99-6.23-8.77-13.52-11.33-21.86-2.57-8.33-3.86-17.23-3.89-26.68l-.19-80.74c0-3.12.66-5.49,2.02-7.09,1.35-1.61,3.51-2.42,6.47-2.42l28.47-.07c3.53,0,5.96.59,7.28,1.77,1.32,1.19,1.98,3.51,1.99,6.97l.19,80.33c0,3.54.69,6.89,2.06,10.05,1.37,3.16,3.2,5.96,5.51,8.38,2.31,2.42,5.01,4.33,8.09,5.72,3.09,1.39,6.36,2.09,9.81,2.08,2.96,0,6.16-.51,9.61-1.51,3.45-.99,6.65-2.54,9.6-4.65,2.95-2.1,5.41-4.8,7.38-8.1,1.97-3.29,2.94-7.25,2.93-11.85l-.19-80.21c0-1.4.26-2.8.79-4.2.53-1.4,1.33-2.47,2.4-3.22,1.07-.66,2.07-1.11,3.02-1.36.94-.25,2.03-.38,3.26-.38l27.86-.07c3.53,0,6.08.85,7.65,2.57,1.56,1.72,2.35,4.02,2.36,6.9l.33,137.95c0,1.56-.34,3-1.04,4.32-.7,1.32-1.66,2.35-2.89,3.09l.74-.37Z"/>
    <path class="st0" d="M402.87,321.82c0-2.54.83-4.46,2.51-5.74,1.68-1.28,4.08-2.49,7.2-3.65l27.96-9.81c.41-.08.8-.12,1.17-.12h1.05c3.04,0,5.08.87,6.11,2.63,1.03,1.77,1.55,4.09,1.56,6.96l-.04,33.9,16.89-.04c2.63,0,4.77.77,6.42,2.32,1.65,1.56,2.48,3.9,2.48,7.02l.06,23.79c0,3.45-.81,5.98-2.45,7.59-1.64,1.61-3.77,2.41-6.4,2.42l-16.89.04.37,104.04c0,3.12-.89,5.49-2.69,7.09-1.81,1.61-4.31,2.41-7.52,2.42l-27.86.07c-6.33.02-9.5-3.14-9.51-9.47l-.38-104.04-12.69.03c-6.33.02-9.5-3.31-9.52-9.96l-.06-23.79c-.02-6.24,3.14-9.37,9.47-9.39l12.69-.03.07-24.29Z"/>
    <path class="st0" d="M645.03,500.11c-1.07.91-2.2,1.49-3.39,1.73-1.19.25-2.32.38-3.39.38l-18.61.04c-1.48,0-2.76-.26-3.82-.79-1.07-.53-1.98-1.25-2.72-2.15-.74-.9-1.36-1.92-1.86-3.07-.5-1.15-.91-2.34-1.24-3.56l-2.62-12.04c-1.22,2.54-3.27,5.23-6.14,8.06-2.87,2.83-6.42,5.44-10.64,7.83-4.23,2.39-9.09,4.37-14.59,5.94-5.5,1.57-11.5,2.36-17.99,2.38-9.37.02-17.68-1.77-24.91-5.37-7.24-3.6-13.36-8.51-18.34-14.75-4.99-6.23-8.77-13.52-11.33-21.86-2.57-8.33-3.86-17.23-3.89-26.68l-.19-80.74c0-3.12.66-5.49,2.02-7.09,1.35-1.61,3.51-2.42,6.47-2.42l28.47-.07c3.53,0,5.96.59,7.28,1.77,1.32,1.19,1.98,3.51,1.99,6.97l.19,80.33c0,3.54.69,6.89,2.06,10.05,1.36,3.16,3.2,5.96,5.51,8.38,2.31,2.42,5,4.33,8.09,5.72,3.08,1.39,6.35,2.09,9.81,2.08,2.96,0,6.16-.51,9.61-1.51,3.45-.99,6.65-2.54,9.6-4.65,2.95-2.1,5.41-4.8,7.38-8.1,1.97-3.29,2.94-7.25,2.93-11.85l-.19-80.21c0-1.4.26-2.8.79-4.2.53-1.4,1.33-2.47,2.4-3.22,1.06-.66,2.07-1.11,3.02-1.36.94-.25,2.03-.38,3.26-.38l27.86-.07c3.53,0,6.08.85,7.65,2.57,1.57,1.72,2.35,4.02,2.36,6.9l.33,137.95c0,1.56-.34,3-1.04,4.32-.7,1.32-1.66,2.35-2.89,3.09l.74-.37Z"/>
    <path class="st0" d="M677.46,354.68c0-1.56.28-2.92.85-4.07.57-1.15,1.33-2.1,2.28-2.84.94-.74,2.01-1.3,3.2-1.67,1.19-.37,2.36-.56,3.51-.56l18.61-.04c2.05,0,3.7.61,4.93,1.84,1.24,1.23,2.29,2.79,3.16,4.68.87,1.89,1.63,3.98,2.29,6.28.66,2.3,1.45,4.52,2.36,6.65,2.46-2.72,4.9-5.39,7.32-8.03,2.42-2.63,5.02-4.98,7.81-7.04,2.79-2.06,5.84-3.73,9.17-5.01,3.33-1.28,7.12-1.93,11.4-1.94,4.44-.01,8.4.31,11.9.96,3.49.65,6.8,1.61,9.93,2.87,3.13,1.27,6.23,2.88,9.32,4.85,3.09,1.97,6.44,4.26,10.06,6.88,3.54,2.05,5.31,4.47,5.32,7.26,0,1.81-.69,3.91-2.08,6.29l-11.17,19.13c-2.21,3.21-4.96,4.82-8.25,4.83-1.64,0-3.5-.44-5.55-1.34-3.54-3.44-7.15-6-10.8-7.68-3.66-1.68-7.84-2.51-12.52-2.5-3.21,0-6.02.47-8.44,1.38-2.42.91-4.62,2.19-6.59,3.84-1.97,1.65-3.81,3.63-5.53,5.93-1.72,2.3-3.44,4.86-5.16,7.66l.22,89.25c0,3.12-.75,5.49-2.27,7.09-1.52,1.61-4.04,2.41-7.57,2.42l-27.73.07c-6.41.02-9.62-3.14-9.64-9.47l-.33-137.94Z"/>
    <path class="st0" d="M817.86,354.22c0-2.87.87-5.2,2.63-6.97,1.76-1.77,4.17-2.66,7.21-2.67l103.79-.25c2.63,0,4.95.79,6.97,2.39,2.02,1.6,3.03,4,3.04,7.2l.05,21.45c0,.74-.06,1.6-.18,2.59-.12.99-.55,1.97-1.29,2.96l-67.73,80.78,60.9-.15c2.96,0,5.32.79,7.09,2.39,1.77,1.6,2.66,4.12,2.67,7.57l.05,19.35c0,1.23-.22,2.49-.67,3.76-.45,1.28-1.1,2.43-1.96,3.46-.86,1.03-1.89,1.85-3.08,2.47-1.19.62-2.52.93-4,.93l-108.72.26c-1.32,0-2.57-.3-3.76-.92-1.19-.61-2.26-1.41-3.21-2.4-.95-.98-1.69-2.11-2.23-3.38-.54-1.27-.81-2.57-.81-3.88l-.04-17.01c0-1.15.1-2.26.3-3.33.2-1.07.79-2.18,1.78-3.33,5.49-6.09,11.25-12.7,17.27-19.83,6.02-7.12,12.11-14.35,18.25-21.68,6.15-7.33,12.25-14.58,18.32-21.74,6.06-7.16,11.84-13.83,17.33-20.01l-60.03.14c-3.04,0-5.45-.81-7.22-2.45-1.77-1.64-2.66-4.23-2.67-7.76l-.05-19.97Z"/>
    <polygon class="st2" points="312.68 260.22 291.84 260.27 291.57 148.8 310.54 148.76 310.5 131.34 246.89 131.49 246.93 148.91 265.9 148.87 266.17 260.33 245.33 260.38 245.37 277.81 312.73 277.64 312.68 260.22"/>
    <polygon class="st2" points="438.02 256.41 365.63 256.59 433.96 131.04 331.26 131.29 331.31 151.28 397.38 151.12 328.59 277.61 438.07 277.34 438.02 256.41"/>
    <path class="st2" d="M509.93,214.24l5.8-.84,36.4,63.66,31.74-.08c-7.72-11.83-15.35-23.76-22.77-35.36-6.44-10.08-13.1-20.5-19.72-30.68l-3.59-5.51,4.42-4.88c7.35-8.12,12.61-19.7,18.12-39.95,2.61-10.27,9.18-16.26,19.55-17.77l-.03-13.19c-23.84-3.23-37.68,4.32-42.26,22.96-4.71,19.91-7.82,33.11-19.15,38.79-6.97,3.62-17.59,3.57-25.36,3.54h-10.96s-.15-63.93-.15-63.93l-25.67.06.35,146.24,25.67-.06-.15-62.32,8.59-.02c5.19-.01,14.85-.04,19.16-.66"/>
    <polygon class="st2" points="602.7 130.63 603.05 276.94 687.97 276.74 687.92 255.58 628.67 255.72 628.37 130.57 602.7 130.63"/>
    <path class="st2" d="M756.76,276.81c27.78-.07,57.65-14.81,57.57-47.02l-.24-99.67-25.2.06.24,98.75c.04,16.25-13.2,27.63-32.18,27.67-19.26.05-32.74-11.27-32.78-27.52l-.24-98.75-25.67.06.24,99.67c.08,32.21,30.26,46.8,58.26,46.74"/>
    <path class="st2" d="M920.3,235.36l-.04.51c-1.29,12.33-9.59,20.32-21.14,20.35l-41.62.1-.26-106.27,35.06-.08c5.89-.01,11.07,2.09,14.97,6.1,4.21,4.32,6.51,10.59,6.31,17.2-.41,12.29-9.32,21.2-21.18,21.23h-.92s.04,17.46.04,17.46l7.24-.02c4.4-.01,7.64,1.12,9.97,2.11.97.41,1.86.93,2.66,1.54,5.84,4.46,9.24,12.04,8.89,19.79M895.3,129.93l-63.77.15.35,146.32,70.33-.17c26.76-.06,43.35-15.91,43.29-41.34-.03-12.37-5.77-22.36-15.74-27.4l-11.89-6,10.39-8.34c5.99-4.81,10.33-13.91,10.31-21.63-.06-25.33-17.05-41.66-43.26-41.6"/>
    <g class="st5">
      <rect class="st4" x="98.62" y="26.62" width="75.96" height="72.5" transform="translate(-.15 .33) rotate(-.14)"/>
    </g>
  </g>
  <path class="st2" d="M224.12,131.55l-23.82.06c-.9,7.03-2.96,13.69-5.98,19.8l11.4-.03-43.06,107.2-6.34-13.69-3.46-7.48c-1.35-2.91-4.27-4.77-7.48-4.77l-8.82.02h-.13s-8.82.02-8.82.02c-3.21,0-6.12,1.88-7.46,4.8l-3.43,7.5-6.28,13.72-43.58-106.99,14.29-.03c-3.05-6.09-5.14-12.75-6.08-19.77l-26.7.06c-5.82.01-9.78,5.9-7.61,11.3l52.17,129.75c1.26,3.12,4.29,5.16,7.65,5.16l19.14-.05c3.21,0,6.13-1.88,7.46-4.81l9.36-20.46,9.46,20.42c1.35,2.91,4.27,4.78,7.48,4.77l19.13-.05c3.37,0,6.39-2.07,7.63-5.19l51.55-130c2.14-5.41-1.85-11.27-7.67-11.26"/>
  <g>
    <path class="st1" d="M159.57,155.06c1.51.28,2.49,1.81,2.03,3.28-3.45,11.01-14.65,17.98-26.3,15.84-11.64-2.14-19.65-12.62-18.97-24.15.09-1.53,1.55-2.62,3.06-2.34l40.18,7.37Z"/>
    <path class="st1" d="M104.18,112.73c-7,.02-12.68,5.72-12.67,12.73.02,7,5.73,12.68,12.73,12.67,7-.02,12.69-5.73,12.67-12.73-.02-7-5.73-12.68-12.73-12.67"/>
    <path class="st1" d="M170.38,119.14c-7,.02-12.68,5.72-12.67,12.73.02,7,5.73,12.68,12.73,12.67,7-.02,12.68-5.73,12.67-12.73-.02-7-5.73-12.68-12.73-12.67"/>
  </g>
  <path class="st2" d="M102.66,116.11c-3.31-.62-6.17,2.25-5.53,5.56.36,1.84,1.87,3.34,3.71,3.69,3.31.62,6.17-2.25,5.53-5.56-.36-1.84-1.86-3.34-3.71-3.69"/>
  <path class="st2" d="M168.77,123.12c-3.31-.62-6.17,2.24-5.53,5.56.36,1.84,1.87,3.34,3.71,3.69,3.31.62,6.17-2.25,5.53-5.56-.36-1.84-1.87-3.34-3.71-3.68"/>
</svg>